<?xml version="1.0" standalone="no"?>
<!DOCTYPE svg PUBLIC "-//W3C//DTD SVG 20010904//EN"
 "http://www.w3.org/TR/2001/REC-SVG-20010904/DTD/svg10.dtd">
<svg version="1.0" xmlns="http://www.w3.org/2000/svg"
 width="260.000000pt" height="260.000000pt" viewBox="0 0 260.000000 260.000000"
 preserveAspectRatio="xMidYMid meet">
<metadata>
Created by potrace 1.14, written by Peter Selinger 2001-2017
</metadata>
<g transform="translate(0.000000,260.000000) scale(0.100000,-0.100000)"
fill="#000000" stroke="none">
<path d="M140 2587 c-47 -15 -107 -78 -120 -126 -7 -27 -10 -394 -8 -1183 l3
-1143 22 -36 c13 -20 42 -49 65 -65 l41 -29 1136 -3 c846 -2 1147 0 1179 9 54
15 117 76 131 126 16 57 15 2272 -1 2325 -15 51 -77 114 -125 127 -54 15
-2275 13 -2323 -2z"/>
</g>
</svg>
